<svg xmlns="http://www.w3.org/2000/svg" viewBox="0 0 419.527 175.748"><path fill="#FFF" d="M13.04 174.743H.393V41.69c10.631-3.298 21.075-4.948 31.339-4.948 7.451 0 14.233 1.164 20.344 3.482 6.107 2.322 11.33 5.562 15.669 9.713 4.335 4.157 7.666 9.104 9.988 14.845 2.319 5.744 3.483 11.975 3.483 18.694 0 8.188-1.405 15.21-4.215 21.076-2.814 5.863-6.507 10.691-11.088 14.477-4.582 3.791-9.806 6.574-15.671 8.34-5.865 1.773-11.852 2.656-17.96 2.656-3.299 0-6.538-.248-9.713-.734-3.178-.484-6.353-1.16-9.529-2.014v47.466zm53.699-91.452c0-10.627-2.967-19.21-8.89-25.747-5.927-6.535-14.265-9.805-25.016-9.805-3.424 0-6.782.215-10.078.641-3.301.43-6.539 1.19-9.715 2.291v64.875c2.933.98 5.956 1.807 9.073 2.477 3.114.674 6.137 1.006 9.07 1.006 10.872 0 19.517-3.084 25.932-9.254 6.413-6.167 9.624-14.997 9.624-26.484m40.133-82.286H119.7V129.29h-12.828zm117.656 114.908c-4.281 4.646-9.228 8.156-14.845 10.537-5.623 2.385-12.403 3.576-20.343 3.576-7.33 0-13.747-1.252-19.244-3.758-5.497-2.502-10.078-5.893-13.745-10.174-3.667-4.273-6.416-9.16-8.248-14.658-1.832-5.496-2.748-11.3-2.748-17.41 0-8.065 1.099-15.057 3.298-20.985 2.198-5.924 5.191-10.843 8.98-14.753 3.788-3.908 8.183-6.808 13.197-8.706 5.006-1.892 10.322-2.841 15.942-2.841 13.441 0 23.579 4.123 30.423 12.373 6.837 8.246 10.139 20.249 9.896 36.011h-68.725c.365 10.387 3.359 18.633 8.98 24.743 5.618 6.111 13.256 9.16 22.909 9.16 5.374 0 10.263-.881 14.659-2.656 4.4-1.77 8.367-4.609 11.913-8.521l7.701 8.062zm-10.262-41.6c0-3.788-.585-7.333-1.742-10.631-1.168-3.298-2.813-6.109-4.948-8.43-2.14-2.319-4.923-4.184-8.34-5.589-3.421-1.403-7.393-2.107-11.913-2.107-4.644 0-8.644.704-12.003 2.107-3.362 1.405-6.018 3.207-7.972 5.405-1.956 2.199-3.757 4.98-5.407 8.338-1.651 3.363-2.722 6.997-3.208 10.907h55.533zm96.785-15.029c-3.2-4.031-6.655-6.992-10.371-8.887-3.715-1.893-8.131-2.84-13.244-2.84-6.527 0-11.104 1.162-13.726 3.479-2.625 2.323-3.934 5.256-3.934 8.797 0 2.447.602 4.524 1.823 6.233 1.215 1.713 2.813 3.179 4.797 4.397 1.983 1.223 4.291 2.292 6.914 3.206 2.621.917 5.341 1.807 8.159 2.661 3.452 1.098 6.909 2.289 10.362 3.573 3.461 1.282 6.625 2.963 9.507 5.038 2.876 2.08 5.213 4.614 7.008 7.605 1.787 2.996 2.685 6.752 2.685 11.27 0 4.158-.897 7.885-2.685 11.182-1.795 3.299-4.225 6.078-7.296 8.336-3.073 2.27-6.69 3.977-10.85 5.133-4.159 1.16-8.613 1.744-13.344 1.744-7.291 0-13.759-1.193-19.388-3.574-5.632-2.383-10.94-6.326-15.933-11.82l9.979-8.797c6.656 8.555 15.294 12.83 25.919 12.83 6.91 0 12.031-1.287 15.355-3.852 3.327-2.566 4.994-5.682 4.994-9.346 0-2.809-.609-5.16-1.822-7.057-1.221-1.893-2.88-3.512-4.994-4.857-2.11-1.344-4.539-2.472-7.296-3.389-2.755-.917-5.656-1.801-8.73-2.657-3.462-.978-6.885-2.079-10.271-3.3-3.396-1.22-6.435-2.777-9.118-4.674-2.69-1.892-4.896-4.306-6.625-7.239s-2.592-6.657-2.592-11.179c0-8.063 2.942-14.295 8.829-18.692 5.883-4.401 13.503-6.598 22.852-6.598 6.649 0 12.57 1.099 17.755 3.298 5.185 2.2 10.143 6.047 14.877 11.546l-9.408 8.614-.188-.184zm34.065-58.096h12.826v128.104h-12.826V1.188zm12.826 80.822l43.984-44.353h17.229l-45.082 43.986 44.899 47.649h-17.778L357.942 82.01z"/><path fill="#53BCE6" d="M74.311 162.673h77.193v12.07H74.311z"/></svg>