<svg xmlns="http://www.w3.org/2000/svg" style="display: none;">
<symbol id="logo" viewBox="0 0 419.527 175.748"><path fill="currentColor" d="M13.04 174.743H.393V41.69c10.631-3.298 21.075-4.948 31.339-4.948 7.451 0 14.233 1.164 20.344 3.482 6.107 2.322 11.33 5.562 15.669 9.713 4.335 4.157 7.666 9.104 9.988 14.845 2.319 5.744 3.483 11.975 3.483 18.694 0 8.188-1.405 15.21-4.215 21.076-2.814 5.863-6.507 10.691-11.088 14.477-4.582 3.791-9.806 6.574-15.671 8.34-5.865 1.773-11.852 2.656-17.96 2.656-3.299 0-6.538-.248-9.713-.734-3.178-.484-6.353-1.16-9.529-2.014v47.466zm53.699-91.452c0-10.627-2.967-19.21-8.89-25.747-5.927-6.535-14.265-9.805-25.016-9.805-3.424 0-6.782.215-10.078.641-3.301.43-6.539 1.19-9.715 2.291v64.875c2.933.98 5.956 1.807 9.073 2.477 3.114.674 6.137 1.006 9.07 1.006 10.872 0 19.517-3.084 25.932-9.254 6.413-6.167 9.624-14.997 9.624-26.484m40.133-82.286H119.7V129.29h-12.828zm117.656 114.908c-4.281 4.646-9.228 8.156-14.845 10.537-5.623 2.385-12.403 3.576-20.343 3.576-7.33 0-13.747-1.252-19.244-3.758-5.497-2.502-10.078-5.893-13.745-10.174-3.667-4.273-6.416-9.16-8.248-14.658-1.832-5.496-2.748-11.3-2.748-17.41 0-8.065 1.099-15.057 3.298-20.985 2.198-5.924 5.191-10.843 8.98-14.753 3.788-3.908 8.183-6.808 13.197-8.706 5.006-1.892 10.322-2.841 15.942-2.841 13.441 0 23.579 4.123 30.423 12.373 6.837 8.246 10.139 20.249 9.896 36.011h-68.725c.365 10.387 3.359 18.633 8.98 24.743 5.618 6.111 13.256 9.16 22.909 9.16 5.374 0 10.263-.881 14.659-2.656 4.4-1.77 8.367-4.609 11.913-8.521l7.701 8.062zm-10.262-41.6c0-3.788-.585-7.333-1.742-10.631-1.168-3.298-2.813-6.109-4.948-8.43-2.14-2.319-4.923-4.184-8.34-5.589-3.421-1.403-7.393-2.107-11.913-2.107-4.644 0-8.644.704-12.003 2.107-3.362 1.405-6.018 3.207-7.972 5.405-1.956 2.199-3.757 4.98-5.407 8.338-1.651 3.363-2.722 6.997-3.208 10.907h55.533zm96.785-15.029c-3.2-4.031-6.655-6.992-10.371-8.887-3.715-1.893-8.131-2.84-13.244-2.84-6.527 0-11.104 1.162-13.726 3.479-2.625 2.323-3.934 5.256-3.934 8.797 0 2.447.602 4.524 1.823 6.233 1.215 1.713 2.813 3.179 4.797 4.397 1.983 1.223 4.291 2.292 6.914 3.206 2.621.917 5.341 1.807 8.159 2.661 3.452 1.098 6.909 2.289 10.362 3.573 3.461 1.282 6.625 2.963 9.507 5.038 2.876 2.08 5.213 4.614 7.008 7.605 1.787 2.996 2.685 6.752 2.685 11.27 0 4.158-.897 7.885-2.685 11.182-1.795 3.299-4.225 6.078-7.296 8.336-3.073 2.27-6.69 3.977-10.85 5.133-4.159 1.16-8.613 1.744-13.344 1.744-7.291 0-13.759-1.193-19.388-3.574-5.632-2.383-10.94-6.326-15.933-11.82l9.979-8.797c6.656 8.555 15.294 12.83 25.919 12.83 6.91 0 12.031-1.287 15.355-3.852 3.327-2.566 4.994-5.682 4.994-9.346 0-2.809-.609-5.16-1.822-7.057-1.221-1.893-2.88-3.512-4.994-4.857-2.11-1.344-4.539-2.472-7.296-3.389-2.755-.917-5.656-1.801-8.73-2.657-3.462-.978-6.885-2.079-10.271-3.3-3.396-1.22-6.435-2.777-9.118-4.674-2.69-1.892-4.896-4.306-6.625-7.239s-2.592-6.657-2.592-11.179c0-8.063 2.942-14.295 8.829-18.692 5.883-4.401 13.503-6.598 22.852-6.598 6.649 0 12.57 1.099 17.755 3.298 5.185 2.2 10.143 6.047 14.877 11.546l-9.408 8.614-.188-.184zm34.065-58.096h12.826v128.104h-12.826V1.188zm12.826 80.822l43.984-44.353h17.229l-45.082 43.986 44.899 47.649h-17.778L357.942 82.01z"/><path fill="#53bce6" d="M74.311 162.673h77.193v12.07H74.311z"/></symbol>
<symbol id="i-organization" viewBox="0 0 16 16"><path d="M16 12.999c0 .439-.45 1-1 1H7.995c-.539 0-.994-.447-.995-.999H1c-.54 0-1-.561-1-1 0-2.634 3-4 3-4s.229-.409 0-1c-.841-.621-1.058-.59-1-3 .058-2.419 1.367-3 2.5-3s2.442.58 2.5 3c.058 2.41-.159 2.379-1 3-.229.59 0 1 0 1s1.549.711 2.42 2.088C9.196 9.369 10 8.999 10 8.999s.229-.409 0-1c-.841-.62-1.058-.59-1-3 .058-2.419 1.367-3 2.5-3s2.437.581 2.495 3c.059 2.41-.158 2.38-1 3-.229.59 0 1 0 1s3.005 1.366 3.005 4"/></symbol>
<symbol id="i-star" viewBox="0 0 14 16"><path d="M14 6l-4.9-.64L7 1 4.9 5.36 0 6l3.6 3.26L2.67 14 7 11.67 11.33 14l-.93-4.74z"/></symbol>
<symbol id="i-repo" viewBox="0 0 12 16"><path d="M4 9H3V8h1v1zm0-3H3v1h1V6zm0-2H3v1h1V4zm0-2H3v1h1V2zm8-1v12c0 .55-.45 1-1 1H6v2l-1.5-1.5L3 16v-2H1c-.55 0-1-.45-1-1V1c0-.55.45-1 1-1h10c.55 0 1 .45 1 1zm-1 10H1v2h2v-1h3v1h5v-2zm0-10H2v9h9V1z"/></symbol>
<symbol id="i-code" viewBox="0 0 14 16"><path d="M9.5 3L8 4.5 11.5 8 8 11.5 9.5 13 14 8 9.5 3zm-5 0L0 8l4.5 5L6 11.5 2.5 8 6 4.5 4.5 3z"/></symbol>
<symbol id="i-globe" viewBox="0 0 14 16"><path d="M7 1C3.14 1 0 4.14 0 8s3.14 7 7 7c.48 0 .94-.05 1.38-.14-.17-.08-.2-.73-.02-1.09.19-.41.81-1.45.2-1.8-.61-.35-.44-.5-.81-.91-.37-.41-.22-.47-.25-.58-.08-.34.36-.89.39-.94.02-.06.02-.27 0-.33 0-.08-.27-.22-.34-.23-.06 0-.11.11-.2.13-.09.02-.5-.25-.59-.33-.09-.08-.14-.23-.27-.34-.13-.13-.14-.03-.33-.11s-.8-.31-1.28-.48c-.48-.19-.52-.47-.52-.66-.02-.2-.3-.47-.42-.67-.14-.2-.16-.47-.2-.41-.04.06.25.78.2.81-.05.02-.16-.2-.3-.38-.14-.19.14-.09-.3-.95s.14-1.3.17-1.75c.03-.45.38.17.19-.13-.19-.3 0-.89-.14-1.11-.13-.22-.88.25-.88.25.02-.22.69-.58 1.16-.92.47-.34.78-.06 1.16.05.39.13.41.09.28-.05-.13-.13.06-.17.36-.13.28.05.38.41.83.36.47-.03.05.09.11.22s-.06.11-.38.3c-.3.2.02.22.55.61s.38-.25.31-.55c-.07-.3.39-.06.39-.06.33.22.27.02.5.08.23.06.91.64.91.64-.83.44-.31.48-.17.59.14.11-.28.3-.28.3-.17-.17-.19.02-.3.08-.11.06-.02.22-.02.22-.56.09-.44.69-.42.83 0 .14-.38.36-.47.58-.09.2.25.64.06.66-.19.03-.34-.66-1.31-.41-.3.08-.94.41-.59 1.08.36.69.92-.19 1.11-.09.19.1-.06.53-.02.55.04.02.53.02.56.61.03.59.77.53.92.55.17 0 .7-.44.77-.45.06-.03.38-.28 1.03.09.66.36.98.31 1.2.47.22.16.08.47.28.58.2.11 1.06-.03 1.28.31.22.34-.88 2.09-1.22 2.28-.34.19-.48.64-.84.92s-.81.64-1.27.91c-.41.23-.47.66-.66.8 3.14-.7 5.48-3.5 5.48-6.84 0-3.86-3.14-7-7-7L7 1zm1.64 6.56c-.09.03-.28.22-.78-.08-.48-.3-.81-.23-.86-.28 0 0-.05-.11.17-.14.44-.05.98.41 1.11.41.13 0 .19-.13.41-.05.22.08.05.13-.05.14zM6.34 1.7c-.05-.03.03-.08.09-.14.03-.03.02-.11.05-.14.11-.11.61-.25.52.03-.11.27-.58.3-.66.25zm1.23.89c-.19-.02-.58-.05-.52-.14.3-.28-.09-.38-.34-.38-.25-.02-.34-.16-.22-.19.12-.03.61.02.7.08.08.06.52.25.55.38.02.13 0 .25-.17.25zm1.47-.05c-.14.09-.83-.41-.95-.52-.56-.48-.89-.31-1-.41-.11-.1-.08-.19.11-.34.19-.15.69.06 1 .09.3.03.66.27.66.55.02.25.33.5.19.63h-.01z"/></symbol>
<symbol id="i-repo" viewBox="0 0 12 16"><path d="M4 9H3V8h1v1zm0-3H3v1h1V6zm0-2H3v1h1V4zm0-2H3v1h1V2zm8-1v12c0 .55-.45 1-1 1H6v2l-1.5-1.5L3 16v-2H1c-.55 0-1-.45-1-1V1c0-.55.45-1 1-1h10c.55 0 1 .45 1 1zm-1 10H1v2h2v-1h3v1h5v-2zm0-10H2v9h9V1z"/></symbol>
<symbol id="i-repo-forked" viewBox="0 0 10 16"><path d="M8 1a1.993 1.993 0 0 0-1 3.72V6L5 8 3 6V4.72A1.993 1.993 0 0 0 2 1a1.993 1.993 0 0 0-1 3.72V6.5l3 3v1.78A1.993 1.993 0 0 0 5 15a1.993 1.993 0 0 0 1-3.72V9.5l3-3V4.72A1.993 1.993 0 0 0 8 1zM2 4.2C1.34 4.2.8 3.65.8 3c0-.65.55-1.2 1.2-1.2.65 0 1.2.55 1.2 1.2 0 .65-.55 1.2-1.2 1.2zm3 10c-.66 0-1.2-.55-1.2-1.2 0-.65.55-1.2 1.2-1.2.65 0 1.2.55 1.2 1.2 0 .65-.55 1.2-1.2 1.2zm3-10c-.66 0-1.2-.55-1.2-1.2 0-.65.55-1.2 1.2-1.2.65 0 1.2.55 1.2 1.2 0 .65-.55 1.2-1.2 1.2z"/></symbol>
<symbol id="i-gear" viewBox="0 0 14 16"><path d="M14 8.77v-1.6l-1.94-.64-.45-1.09.88-1.84-1.13-1.13-1.81.91-1.09-.45-.69-1.92h-1.6l-.63 1.94-1.11.45-1.84-.88-1.13 1.13.91 1.81-.45 1.09L0 7.23v1.59l1.94.64.45 1.09-.88 1.84 1.13 1.13 1.81-.91 1.09.45.69 1.92h1.59l.63-1.94 1.11-.45 1.84.88 1.13-1.13-.92-1.81.47-1.09L14 8.75v.02zM7 11c-1.66 0-3-1.34-3-3s1.34-3 3-3 3 1.34 3 3-1.34 3-3 3z"/></symbol>
<symbol id="i-package" viewBox="0 0 16 16"><path d="M1 4.27v7.47c0 .45.3.84.75.97l6.5 1.73c.16.05.34.05.5 0l6.5-1.73c.45-.13.75-.52.75-.97V4.27c0-.45-.3-.84-.75-.97l-6.5-1.74a1.4 1.4 0 0 0-.5 0L1.75 3.3c-.45.13-.75.52-.75.97zm7 9.09l-6-1.59V5l6 1.61v6.75zM2 4l2.5-.67L11 5.06l-2.5.67L2 4zm13 7.77l-6 1.59V6.61l2-.55V8.5l2-.53V5.53L15 5v6.77zm-2-7.24L6.5 2.8l2-.53L15 4l-2 .53z"/></symbol>
<symbol id="i-three-bars" viewBox="0 0 12 16"><path d="M11.41 9H.59C0 9 0 8.59 0 8c0-.59 0-1 .59-1H11.4c.59 0 .59.41.59 1 0 .59 0 1-.59 1h.01zm0-4H.59C0 5 0 4.59 0 4c0-.59 0-1 .59-1H11.4c.59 0 .59.41.59 1 0 .59 0 1-.59 1h.01zM.59 11H11.4c.59 0 .59.41.59 1 0 .59 0 1-.59 1H.59C0 13 0 12.59 0 12c0-.59 0-1 .59-1z"/></symbol>
</svg>